<svg xmlns="http://www.w3.org/2000/svg" id="Layer_1" data-name="Layer 1" viewBox="0 0 530 330"><defs><style>.cls-1{fill:#a0462d;}.cls-2{fill:#b8c1c9;}.cls-3{fill:#d5d6da;}.cls-4{fill:#00a3fe;}.cls-5{fill:#016eb9;}.cls-6{fill:#eaeaea;}.cls-7{fill:#131f2d;}.cls-8{fill:#ff7955;}.cls-9{fill:#ef6343;}.cls-10{fill:#364154;}.cls-11{fill:#fff;}.cls-12{fill:#f9ddbf;}.cls-13{fill:#657285;}</style></defs><rect class="cls-1" x="20.69" y="297.48" width="488.62" height="1.4" rx="0.58" transform="translate(530 596.36) rotate(180)"></rect><path class="cls-2" d="M234.13,252.94s-7.21-8.43-.44-13.77c0,0,4.95-3,9-2.76,0,0-5.71,9.59-3.87,10.54s5.6-11.14,5.6-11.14,11.26-1.09,14.89.65c0,0-9.63,7.88-7.6,8.35s12.42-7.26,12.42-7.26,10.48,1.78,9.92,8.17-4.17,8.37-5.76,8.2-10.87-3.72-11.07-2.42,5.39,5.55,9.3,5.75c0,0-7.39,8.15-12.3,5.8s-5.33-6.08-8.39-7.48-5.67-1.39-4.41,0,6.81,2.81,8.56,5.91,3.32,5.19-1.76,4.42-13.34-4.48-13.7-8.74Z"></path><path class="cls-2" d="M268.88,245.89s-28.46-1.09-34.75,7.05a20.61,20.61,0,0,1-5.66,7.95l-.67,1.82s4.93-5.2,6.7-5.52C234.5,257.19,231.74,247.11,268.88,245.89Z"></path><path class="cls-2" d="M228.47,260.89a17.89,17.89,0,0,0-6.54,12.59l1.11.1s2-8.35,5.48-11.61S228.47,260.89,228.47,260.89Z"></path><path class="cls-3" d="M208.9,242.35s11.48-6.44,6.12-15.16c0,0-4.29-5.36-8.88-6.74,0,0,2.45,13,0,13.32s-1.68-14.7-1.68-14.7-12.1-5.81-16.85-5.36c0,0,7.51,12.71,5.06,12.41S181.8,213,181.8,213s-12.41-2.3-14.4,5.05,1.23,11,3.07,11.48,13.62.31,13.32,1.84-8.27,4-12.71,2.6c0,0,4.9,12.1,11.33,11.49s8.42-4.6,12.4-4.9,6.89.76,4.9,1.84-8.73.35-11.94,3.08-5.82,4.42.15,5.64,16.69.46,18.83-4.13Z"></path><path class="cls-2" d="M173.07,220.3s32.15,10.41,35.83,22A24.31,24.31,0,0,0,212,253.52v2.3s-3.37-7.81-5.21-8.88C206.75,246.94,214,236.83,173.07,220.3Z"></path><path class="cls-2" d="M212,253.52a21.2,21.2,0,0,1,2.13,16.7l-1.28-.35s1.24-10.09-1.35-15.17S212,253.52,212,253.52Z"></path><path class="cls-3" d="M227.16,233.48s-15.13-8.48-8.07-20c0,0,5.65-7.07,11.71-8.88,0,0-3.23,17.15,0,17.56S233,202.8,233,202.8s15.94-7.67,22.2-7.06c0,0-9.89,16.75-6.66,16.34s14.33-17.35,14.33-17.35,16.34-3,19,6.66-1.62,14.53-4,15.13-18,.41-17.56,2.43,10.9,5.24,16.75,3.43c0,0-6.45,15.94-14.93,15.13s-11.1-6-16.35-6.45-9.08,1-6.46,2.42,11.51.46,15.75,4.06,7.67,5.83-.21,7.44-22,.61-24.82-5.45Z"></path><path class="cls-2" d="M274.39,204.41S232,218.14,227.16,233.48a32.1,32.1,0,0,1-4,14.73v3s4.44-10.3,6.86-11.71C230,239.53,220.5,226.21,274.39,204.41Z"></path><path class="cls-2" d="M223.13,248.21s-6.54,9.93-2.81,22l1.68-.45s-1.63-13.31,1.79-20S223.13,248.21,223.13,248.21Z"></path><path class="cls-4" d="M226.65,296.42a29.65,29.65,0,0,0,29.65-29.65H197A29.66,29.66,0,0,0,226.65,296.42Z"></path><path class="cls-4" d="M256.71,297.93H196.59a3.66,3.66,0,0,1,3.66-3.66h52.81a3.65,3.65,0,0,1,3.65,3.66Z"></path><rect class="cls-4" x="196.03" y="266.77" width="60.95" height="0.91"></rect><rect class="cls-5" x="196.36" y="6.21" width="121.09" height="170.93" transform="translate(348.56 -165.24) rotate(89.99)"></rect><rect class="cls-6" x="173.69" y="33.38" width="166.44" height="116.6" transform="translate(513.83 183.33) rotate(179.99)"></rect><path class="cls-4" d="M274.93,127.52H216.55a2.1,2.1,0,0,1-2.09-2.1h0a2.1,2.1,0,0,1,2.09-2.09h58.38a2.09,2.09,0,0,1,2.09,2.1h0A2.09,2.09,0,0,1,274.93,127.52Z"></path><path class="cls-4" d="M274.93,139.82H216.55a2.1,2.1,0,0,1-2.09-2.09h0a2.1,2.1,0,0,1,2.09-2.1h58.38a2.1,2.1,0,0,1,2.1,2.09h0A2.1,2.1,0,0,1,274.93,139.82Z"></path><rect class="cls-5" x="185.96" y="115" width="135.13" height="1.08"></rect><polygon class="cls-5" points="319.57 117.75 319.57 113.33 325.63 115.54 319.57 117.75"></polygon><rect class="cls-5" x="156.9" y="86.32" width="71.84" height="1.13" transform="translate(105.95 279.72) rotate(-90.01)"></rect><polygon class="cls-5" points="190.51 53.02 195.13 53.02 192.82 47.52 190.51 53.02"></polygon><path class="cls-7" d="M206.54,129.74h-.35a3.8,3.8,0,0,1-3.8-3.8h0a3.8,3.8,0,0,1,3.8-3.8h.35a3.8,3.8,0,0,1,3.79,3.8h0A3.78,3.78,0,0,1,206.54,129.74Z"></path><path class="cls-5" d="M206.54,140.64h-.35a3.8,3.8,0,0,1-3.8-3.8h0a3.8,3.8,0,0,1,3.8-3.79h.35a3.79,3.79,0,0,1,3.8,3.79h0A3.8,3.8,0,0,1,206.54,140.64Z"></path><polygon class="cls-4" points="313.89 54.25 306.13 54.9 307.15 56.91 282.79 68.38 260.04 106.62 233.18 83.6 211.52 94.11 211.45 94.14 197.64 107 198.27 107.62 211.99 94.85 233.04 84.64 260.27 107.98 283.44 69.03 307.54 57.69 308.55 59.67 313.89 54.25"></polygon><path class="cls-7" d="M211.67,97.59h-.25a2.81,2.81,0,0,1-2.81-2.81h0A2.81,2.81,0,0,1,211.42,92h.25a2.81,2.81,0,0,1,2.81,2.81h0A2.81,2.81,0,0,1,211.67,97.59Z"></path><path class="cls-7" d="M283.12,72.09h-.26a2.81,2.81,0,0,1-2.81-2.81h0a2.81,2.81,0,0,1,2.81-2.81h.25a2.81,2.81,0,0,1,2.81,2.81h0A2.8,2.8,0,0,1,283.12,72.09Z"></path><path class="cls-7" d="M233.11,87.65h-.26A2.81,2.81,0,0,1,230,84.84h0A2.81,2.81,0,0,1,232.85,82h.26a2.81,2.81,0,0,1,2.81,2.81h0A2.81,2.81,0,0,1,233.11,87.65Z"></path><path class="cls-4" d="M260.15,109.32h-.26a2.82,2.82,0,0,1-2.81-2.81h0a2.81,2.81,0,0,1,2.81-2.81h.26a2.81,2.81,0,0,1,2.81,2.81h0A2.81,2.81,0,0,1,260.15,109.32Z"></path><path class="cls-8" d="M103.67,92s6.62,7.85,15.06,4.57A25.72,25.72,0,0,0,120.57,89c0-.39,0-.78,0-1.15,0-3.64.17-5.68.17-5.68h0c-.39-.16-12.89-5.3-12.88-4.87C108.07,87.11,103.67,92,103.67,92Z"></path><path class="cls-9" d="M109.11,79.61c1.21,2.23,5.35,6.61,11.47,8.2,0-3.64.17-5.68.17-5.68h0C120.39,82,108.75,79,109.11,79.61Z"></path><path class="cls-8" d="M123.37,81.75s-14.07,3.31-16-5.49-5-14.28,3.87-16.77S122.62,60,124,62.76,127,80.66,123.37,81.75Z"></path><path class="cls-7" d="M107.86,78.66c-.2.12-3.22,1-9-10.37a10,10,0,0,1,.59-9.1c2.1-3.42,9.53-6.12,15.71-7.29s7.67,2.31,9.12,5.8c1.53,3.67,5.94,6.69,5.94,6.69-5.33,3-11.75-1.28-14-.58s-3,4.2-3.17,5.33-.43,2-3.22,1-1.27,4-.82,4.91C109.08,75.1,109.46,77.63,107.86,78.66Z"></path><path class="cls-7" d="M71.62,297.93H63.1c-1.79,0-3.77-1.79-4.27-5.06s-4.17-5.07-5-7.75,3.27-6.45,3.27-6.45l.68-.87.71-.91,6.75,1.58s.17,1.61.27,3.66c.07,1.47.11,3.18,0,4.68-.2,3.57,1,7.42,4.17,8.12S71.62,297.93,71.62,297.93Z"></path><path class="cls-7" d="M130.92,297.93H108.34a2.41,2.41,0,0,1-.48-.14c-1.51-.76-1-6.53-.86-8.31,0-.33.06-.53.06-.53s7.94-6.35,9-1.48c0,.15.07.3.11.44h0c1.38,4.55,7.54,6.61,11.1,7.19C130,295.55,130.74,297.13,130.92,297.93Z"></path><path class="cls-10" d="M126.37,167.71s-1.21,15-2.63,33.13c-1.92,24.57-4.24,54.75-4.47,60.46-.4,9.93-2,25.81-2,25.81s-3.76,3.77-11.31,2.18a260,260,0,0,1-8.64-46.65l-.09-1.18c-1.79-24.42-4.57-75.83-4.57-75.83Z"></path><path class="cls-7" d="M126.37,167.71s-1.21,15-2.63,33.13l-26.41,41.8-.09-1.18c-1.79-24.42-4.57-75.83-4.57-75.83Z"></path><path class="cls-10" d="M120.86,169.5s-21.74,54.49-36,80.09-18.75,32.75-18.75,32.75-8.19-3.27-8.94-5.5c0,0,5.47-49.44,15-61.49,5.41-6.81,11.76-27.24,12.06-34.39s1.93-21.28,1.93-21.28Z"></path><path class="cls-8" d="M71.29,159.6l-.23,3.51a7.54,7.54,0,0,1-4.16,9.41s-2.77,1.12-2.89-1,.25-1.34,0-4.38,1-5.91,3-6.88l1.65-1.9Z"></path><path class="cls-5" d="M68.76,162.15c2.41.78,2.79.6,2.79.6s11.71-21.32,12.9-23.27,24.86-23.9,24.86-23.9l-6.08-22.69S76.3,127.76,73.39,132.76c-4.8,8.27-7.62,27.47-7.62,27.47A7,7,0,0,0,68.76,162.15Z"></path><path class="cls-4" d="M86.87,169c5.95,3.51,11.57,6.12,18.09,7.5,7.73,1.68,17.17,1,20.33,1.36a1.34,1.34,0,0,0,.93-.24c.23-.14,1.47-9.68,2.66-21.74L129,155l0-.58,0-.17c.13-1.26.25-2.53.37-3.83.29-3.22.54-6.52.78-9.82l.06-.94c.37-5.32.64-10.56.72-15.22,0-.11,0-.22,0-.33a101.32,101.32,0,0,0-.25-10.16q-.08-.87-.18-1.65c-.92-7-4.31-11.91-7.49-15.61l-3.11-3.52c-3,.26-5.56.36-8.48-1.51-3.15-2-5.19-3.92-5.83-3.57C100.74,91,95.45,98,92.8,107.56a107.38,107.38,0,0,0-3.15,17c-.26,2.34-.45,4.72-.59,7.13a232.64,232.64,0,0,1-3.89,30.37c-.33,1.85-.6,3.31-.74,4.33S86.08,168.55,86.87,169Z"></path><path class="cls-5" d="M109.31,108.63S112,138,129,155l0-.58,0-.17c.13-1.26.25-2.53.37-3.83.29-3.22.54-6.52.78-9.82l.06-.94c.37-5.32.64-10.56.72-15.22,0-.11,0-.22,0-.33,0-2.79-.12-5.33-.25-7.56A37.51,37.51,0,0,0,109.31,108.63Z"></path><path class="cls-7" d="M166,167.36l31.63-93c.14-.42.34-.83-.09-1l-.38-.14c-.43-.16-.56.12-.71.55l-33.72,91.62a1.79,1.79,0,0,0,.95,2.23l.78.35A1.14,1.14,0,0,0,166,167.36Z"></path><path class="cls-8" d="M174.47,127.41c0-1.36,3.61-4.5,3.85-4.13a5.88,5.88,0,0,1-.4,2.31c1.49-1,1.83-4.53,4.35-6.1.69-.44,3.18,6.38.82,8.85s-3.48,2.2-7.41,4.49l-2.84.19-1.4-4.42S173,128.05,174.47,127.41Z"></path><path class="cls-4" d="M175.94,131c.19-2.68-3.35-4.23-3.35-4.23s-26.92,2.81-29.24,2.08-19.62-25.56-19.62-25.56-7.6-8.57-13.81-6.67c-5.4,1.64-7.52,5.85-8.23,9.87a11.8,11.8,0,0,0,5.49,12.13c9.3,5.71,25.56,21.43,29.94,22.71,9.76,2.86,37.63-6.49,37.63-6.49A9.48,9.48,0,0,0,175.94,131Z"></path><path class="cls-3" d="M447.65,214a243.6,243.6,0,0,1,2.81-29.79c2-11.63,3.82-18.32,3.84-18.39.27-1,4.1-5.16,12.61-5s7.7,5.56,7.7,5.56h0a1.7,1.7,0,0,1-.06.48A261.07,261.07,0,0,0,467,232c0,.51.07,1.4,0,2,0,0-19.72.51-19.73,0C446.6,230.75,446.94,221.89,447.65,214Z"></path><path class="cls-2" d="M445.17,231.78c0,.51.28.91.61.91h0c.33,0,.59-.41.6-.91h16.9c0,.51.28.91.6.91h0c.34,0,.6-.42.6-.94a255.8,255.8,0,0,1,1.4-28.88,227.14,227.14,0,0,1,6.46-36.1,1.7,1.7,0,0,0,.06-.48s.81-5.43-7.7-5.56-12.34,4-12.61,5c0,0-1,3.84-2.4,10.65-.45,2.26-.94,4.85-1.44,7.74A243.6,243.6,0,0,0,445.45,214C444.74,221.89,444.49,228.58,445.17,231.78Z"></path><path class="cls-2" d="M465.74,232.7H399.47s1.54-6.25,39.92-5.32C466.55,228,465.74,232.7,465.74,232.7Z"></path><path class="cls-3" d="M471.13,297.93c-7.68-38.9-5.71-62.77-5.7-63.07,0-.6-1.08-1.14-1.68-1.16s-3.25-.18-3.56.33c-.4.67-1.95,30.08,9.51,63.9Z"></path><path class="cls-3" d="M409.25,297.93c7.69-38.9,5.71-62.77,5.7-63.07,0-.6,1.09-1.14,1.68-1.16s3.25-.18,3.56.33c.4.67,1.95,30.08-9.5,63.9Z"></path><path class="cls-3" d="M397,297.93c7.69-38.9,5.71-62.77,5.7-63.07,0-.6,1.09-1.14,1.68-1.16s3.25-.18,3.56.33c.4.67,1.95,30.08-9.5,63.9Z"></path><path class="cls-3" d="M458.79,297.93c-7.69-38.9-5.71-62.77-5.7-63.07,0-.6-1.09-1.14-1.68-1.16s-3.25-.18-3.56.33c-.4.67-2,30.08,9.5,63.9Z"></path><rect class="cls-3" x="398.07" y="231.08" width="68.99" height="3.61" rx="1.36" transform="translate(865.12 465.77) rotate(180)"></rect><path class="cls-8" d="M401.75,174.84l-22-4.77-1.3,3.16S402.74,187.69,405,187,401.75,174.84,401.75,174.84Z"></path><path class="cls-8" d="M421.78,274.47a2,2,0,0,1,.35,2.09h0c-.51,1.4-2.18,3-4.12,4.51l-.65.55-.15.13-.12.11c-1.8,1.66-1.12,2-4.37,5.43-3.7,3.85-6.25,3.92-7,3.56s.64-2.34,2-4.63l.2-.34.55-.92c1.62-2.76,1.2-4.06.82-8.17-.31-3.34-5.2-18.67-5.2-18.67l7.09-1.22s2.14,12.2,4.49,14.08c1.26,1,2.67,1,3.88,1.76l.25.16A8.8,8.8,0,0,1,421.78,274.47Z"></path><path class="cls-7" d="M421.78,274.47a2,2,0,0,1,.35,2.09h0c-.62,1.4-2.25,2.95-4.12,4.5-.25.2-.46.39-.65.56l-.15.13-.12.11c-1.8,1.66-1.12,2-4.37,5.43-3.7,3.85-6.25,3.92-7,3.56s.64-2.34,2-4.63a15.9,15.9,0,0,0,6.6-4.86c2.23-2.85,3.71-6.5,5.23-8.62l.25.16A8.8,8.8,0,0,1,421.78,274.47Z"></path><path class="cls-8" d="M364.58,270c-.44,2.19-3.56,1.82-7.05,1s-2.65.16-7.62-.39-6.46-2.4-6.61-3.14,2.31-.88,4.94-1.19l1-.11c3-.38,5.14-2.29,7.84-3.87s6.37-7.56,6.37-7.56l6.81.54s-3.58,5.42-5,7.78a8.26,8.26,0,0,0-.67,4.64A8.27,8.27,0,0,1,364.58,270Z"></path><path class="cls-7" d="M357.53,271c-3.48-.85-2.65.16-7.62-.39s-6.46-2.4-6.61-3.14,2.31-.88,4.94-1.19l0,.06a13.91,13.91,0,0,0,7.11,2.2c3.36.09,6.93-.88,9.25-.84a8.27,8.27,0,0,1-.05,2.33C364.14,272.23,361,271.86,357.53,271Z"></path><path class="cls-8" d="M379.73,170.07s-1.63-4-3.41-4.14-7.46-1.05-7.86-.24a5.6,5.6,0,0,0,1.21,4.78c1.22,1.06,8.76,2.76,8.76,2.76Z"></path><path class="cls-7" d="M390.67,226.52,405.33,266a13.47,13.47,0,0,0,4.42-.4,18.68,18.68,0,0,0,4.26-2.08s-3.63-37.9-10.31-45.79S390.67,226.52,390.67,226.52Z"></path><path class="cls-10" d="M448.68,210.55s-42.15-14.26-51.55-11.22-37.62,59.18-37.62,59.18a5.45,5.45,0,0,0,2.37,1.5,22.34,22.34,0,0,0,5.54.57s25.47-21.83,28.5-28.2,4.25-12.43,7.28-11.83,39.12,14.86,47.3,6.37,6.05-19.52,6.05-19.52Z"></path><path class="cls-7" d="M422.93,144.24c-.68-1.39-1.43-3.86-1.8-8.26.06.44.82,6,2.95,9.13,8.77,5.76,25.57,25,25.24,28.62,0,0,5.92-10,6-10.1s10.91-13.88-2-21.84c-6.58-4-6.55-9.22-6.27-13.73s-1.8-23.9-15-18.83a8.56,8.56,0,0,0-3.06-.8,2.61,2.61,0,0,1,1.17.56,10.22,10.22,0,0,0-5.54,1.06C419.83,112.79,415.5,137.41,422.93,144.24Z"></path><path class="cls-8" d="M424.6,145.4s4.23,2.24,7.45,1.36c3-.83,5-4.75,5-4.76-1.28-.25-1.65-2-1.62-9.58l-.58.11-9.74,1.93s.22,3.07.23,6C425.3,142.84,425.16,145.14,424.6,145.4Z"></path><path class="cls-9" d="M425.07,134.46s.22,3.07.23,6c5.45-.16,8.33-5.13,9.51-7.89Z"></path><path class="cls-7" d="M435.81,131.47s2.86-4.51,3.55-8.37c.49-2.75-.92-13-11.18-11.49a13.91,13.91,0,0,0-5.78,2.18c-2.23,1.51-5.45,4.76-1.85,13.67l.93,3Z"></path><path class="cls-8" d="M423.25,137.2s12.89.21,12.9-7.82,1.68-13.42-6.55-13.89-9.84,2.58-10.49,5.27S419.89,136.93,423.25,137.2Z"></path><path class="cls-7" d="M423.73,115.29s3.53,9.42,8.94,10.82,7.77-.06,7.77-.06a51.69,51.69,0,0,1-2.84-10.61S426.39,110.8,423.73,115.29Z"></path><path class="cls-7" d="M424.6,116.06s-2.64,2.1-3.28,4.14-.93,6.26-2.16,6.12c0,0-2.66-6.41.33-10C422.66,112.45,424.6,116.06,424.6,116.06Z"></path><path class="cls-4" d="M453.32,180.09c1.27-5.33-3.06-15.68-7.58-24.25-4.09-7.77-8.35-14.06-8.73-13.84-10.81,6.42-11.78,1.08-11.78,1.08h0s-9.82,1.31-12.6,6.09c-3.45,5.94-7.18,22.53-10.88,25.67.57,1.74.33,2.67-.27,4.82-.13.46-.27.9-.43,1.32a26.09,26.09,0,0,1-1.86,3.81c1.88,1.14,5.51,3.32,8.19,1.75,4.08-2.38,7.26-9.65,9.05-12.55l0,0c3.9,22-1.4,27.06,1.28,29.39s6.88-1.17,15.77,2.68c5.84,2.53,13.93,6.19,19.39,6.83,2.85.34,5-.16,5.68-2.09C460.59,205.16,450.89,190.26,453.32,180.09Z"></path><path class="cls-11" d="M426.11,132.33s-.24,1-2.77.86c0,0-2.14-.13-2.07-1.25A6.83,6.83,0,0,1,426.11,132.33Z"></path><path class="cls-5" d="M458.57,210.77c-.69,1.93-2.83,2.43-5.68,2.09-3.78-1.64-20.07-8-19.89-12.24.27-6.33,3.13-6.53,1.11-14.35-1.62-6.28,13.43-18,15.84-20.49,4.51,8.57,4.64,9,3.37,14.31C450.89,190.26,460.59,205.16,458.57,210.77Z"></path><path class="cls-4" d="M460.41,187.92a23.87,23.87,0,0,0-7.88-7.28c.46-1.18-12.15-16.64-12.15-19S437,142,437,142s10.51.65,14.15,5.72C455.71,154.07,465.16,178.49,460.41,187.92Z"></path><path class="cls-8" d="M452.53,180.64l-21,5.48,2,3.54s25.56-.18,26.91-1.74S452.53,180.64,452.53,180.64Z"></path><path class="cls-5" d="M416.43,174c-1.79,2.9-5,10.17-9.05,12.55-2.68,1.57-6.31-.61-8.19-1.75a26.09,26.09,0,0,0,1.86-3.81c1.5.34,3.33.78,4.51,1.14C407.86,182.81,416.43,174,416.43,174Z"></path><path class="cls-8" d="M431.53,186.12s-6.59-1.87-8.16-1.43-7,4-6.2,5,5.5-.58,7.68-.29,3.87,1.37,5.44,1.14a18.93,18.93,0,0,0,3.21-.85Z"></path><path class="cls-8" d="M431.53,186.12a25,25,0,0,1-4.14-2.6.25.25,0,0,0-.4,0c-.25.39-.48,1.14.65,1.89A6.09,6.09,0,0,0,431.53,186.12Z"></path><path class="cls-7" d="M401.05,195.4h30.77a2.45,2.45,0,0,0-2.45-2.45H401.05Z"></path><polygon class="cls-7" points="401.14 161.89 353.57 161.89 364.98 195.4 412.86 195.4 401.14 161.89"></polygon><polygon class="cls-7" points="352.87 161.89 364.28 195.4 412.16 195.4 400.44 161.89 352.87 161.89"></polygon><path class="cls-12" d="M378.52,178.33a3.1,3.1,0,0,0,2.85,2.32,1.79,1.79,0,0,0,1.79-2.32A3.11,3.11,0,0,0,380.3,176,1.78,1.78,0,0,0,378.52,178.33Z"></path><path class="cls-13" d="M491,297.93a1.23,1.23,0,0,1-1.21-1l-6-33.87-8.59-48.7-2.41-13.62,6.12-.18,1.07,7.91L487.42,264,491.84,297A.87.87,0,0,1,491,297.93Z"></path><path class="cls-13" d="M480,208.47a8.77,8.77,0,0,0-4.78,5.89l-2.41-13.62,6.12-.18Z"></path><path class="cls-13" d="M338.73,297.93a1.24,1.24,0,0,0,1.22-1l6-33.87,8.59-48.7,2.41-13.62-6.12-.18-1.07,7.91L342.28,264,337.86,297A.87.87,0,0,0,338.73,297.93Z"></path><path class="cls-13" d="M349.73,208.47a8.77,8.77,0,0,1,4.78,5.89l2.41-13.62-6.12-.18Z"></path><rect class="cls-13" x="334.58" y="195.39" width="164.22" height="10.69" rx="3.73"></rect></svg>